<svg width="24" height="25" viewBox="0 0 24 25" fill="none" xmlns="http://www.w3.org/2000/svg">
<path d="M12.02 2.5C17.7 2.5 22 7.15699 22 12.485C22 18.6642 16.96 22.5 12 22.5C10.36 22.5 8.54 22.0593 7.08 21.198C6.57 20.8876 6.14 20.6572 5.59 20.8375L3.57 21.4384C3.06 21.5986 2.6 21.198 2.75 20.6572L3.42 18.4139C3.53 18.1034 3.51 17.7729 3.35 17.5125C2.49 15.9301 2 14.1975 2 12.515C2 7.24712 6.21 2.5 12.02 2.5ZM16.59 11.2431C15.88 11.2431 15.31 11.814 15.31 12.525C15.31 13.2261 15.88 13.807 16.59 13.807C17.3 13.807 17.87 13.2261 17.87 12.525C17.87 11.814 17.3 11.2431 16.59 11.2431ZM11.98 11.2431C11.28 11.2331 10.7 11.814 10.7 12.515C10.7 13.2261 11.27 13.7969 11.98 13.807C12.69 13.807 13.26 13.2261 13.26 12.525C13.26 11.814 12.69 11.2431 11.98 11.2431ZM7.37 11.2431C6.66 11.2431 6.09 11.814 6.09 12.525C6.09 13.2261 6.67 13.807 7.37 13.807C8.08 13.7969 8.65 13.2261 8.65 12.525C8.65 11.814 8.08 11.2431 7.37 11.2431Z" fill="black"/>
</svg>
