<svg width="28" height="28" viewBox="0 0 28 28" fill="none" xmlns="http://www.w3.org/2000/svg">
<path fill-rule="evenodd" clip-rule="evenodd" d="M22.2496 22.2482C18.6841 25.8141 13.4044 26.5845 9.08383 24.5864C8.446 24.3296 7.92307 24.122 7.42594 24.122C6.04124 24.1303 4.3177 25.4729 3.42193 24.5782C2.52615 23.6823 3.86981 21.9574 3.86981 20.5644C3.86981 20.0672 3.67049 19.5536 3.41372 18.9145C1.41464 14.5946 2.18613 9.31318 5.75164 5.74845C10.3032 1.19521 17.698 1.19521 22.2496 5.74728C26.8094 10.3075 26.8012 17.6962 22.2496 22.2482Z" stroke="white" stroke-width="1.5" stroke-linecap="round" stroke-linejoin="round"/>
<path d="M18.5957 14.4819H18.6062" stroke="white" stroke-width="2" stroke-linecap="round" stroke-linejoin="round"/>
<path d="M13.9189 14.4819H13.9294" stroke="white" stroke-width="2" stroke-linecap="round" stroke-linejoin="round"/>
<path d="M9.24121 14.4819H9.25171" stroke="white" stroke-width="2" stroke-linecap="round" stroke-linejoin="round"/>
</svg>
