<svg width="13" height="13" viewBox="0 0 13 13" fill="none" xmlns="http://www.w3.org/2000/svg">
<path fill-rule="evenodd" clip-rule="evenodd" d="M5.28662 0.147352C5.95049 0.0391895 6.63159 0.05173 7.29859 0.118352C7.917 0.246108 8.54089 0.388757 9.10835 0.674838C10.2566 1.2227 11.234 2.11073 11.8853 3.20411C12.4253 4.21441 12.7968 5.34776 12.7412 6.50541C12.7569 8.88184 11.2512 11.1462 9.11854 12.1565C7.73595 12.8141 6.12762 12.9042 4.65019 12.5437C3.65086 12.2364 2.68681 11.7395 1.95868 10.9761C1.26503 10.3326 0.741459 9.51278 0.409135 8.63024C-0.0242974 7.5447 -0.0634865 6.33768 0.120703 5.19414C0.45773 3.49568 1.50722 1.9383 2.99249 1.03538C3.68378 0.58 4.47854 0.309595 5.28662 0.147352ZM4.39938 3.19705C3.89932 3.248 3.35303 3.42357 3.07635 3.87503C2.77069 4.30745 2.7388 4.84831 2.7085 5.36213C2.70601 5.40431 2.70354 5.44631 2.70092 5.48805C2.69468 5.61766 2.68311 5.7471 2.67154 5.87657L2.67154 5.87657C2.64819 6.13778 2.62483 6.39909 2.64527 6.66216C2.6605 6.83981 2.67125 7.01804 2.68201 7.19629V7.19629C2.70888 7.64169 2.73576 8.08726 2.83259 8.52443C2.95251 9.07543 3.44865 9.50259 3.99573 9.60292C5.01533 9.78673 6.05401 9.77058 7.08645 9.75453C7.181 9.75306 7.2755 9.75159 7.36992 9.75027C7.79238 9.72676 8.21484 9.68365 8.63259 9.61703C9.25805 9.53551 9.81062 9.02605 9.9133 8.39903C10.0928 7.63014 10.1249 6.83695 10.0716 6.05238C9.9713 5.54919 9.61546 5.09538 9.13186 4.91119C8.91399 4.80592 8.67232 4.80656 8.43527 4.80719C8.39347 4.80731 8.35182 4.80742 8.31046 4.80695C7.84418 4.80752 7.37791 4.80726 6.91167 4.807H6.91163C6.09572 4.80654 5.27992 4.80609 4.46443 4.81008C4.37068 4.8118 4.28319 4.77974 4.19647 4.74797C4.16429 4.73618 4.13222 4.72443 4.09997 4.71446C4.09762 4.53889 4.10389 4.27632 4.33981 4.27162C4.95411 4.25775 5.56899 4.26184 6.18383 4.26593H6.18386C6.99361 4.27131 7.80328 4.2767 8.61143 4.24105C8.52365 3.83349 8.27519 3.40789 7.84724 3.29503C7.46084 3.19157 7.06111 3.13905 6.66373 3.10222C6.55039 3.10081 6.43688 3.09864 6.32327 3.09647H6.32326C5.67953 3.08416 5.03294 3.07181 4.39938 3.19705ZM8.77603 6.62062C8.56989 6.56497 8.323 6.64649 8.25089 6.85889C8.20563 7.10341 8.27815 7.33899 8.35019 7.57302C8.38045 7.67131 8.41062 7.76933 8.43195 7.86762C8.45545 7.88133 8.49069 7.9017 8.52594 7.92206C8.56123 7.94245 8.59653 7.96284 8.62005 7.97657C8.70078 7.92954 8.78308 7.88722 8.86851 7.85038C8.87774 7.64354 8.92758 7.44459 8.97741 7.24572C8.99951 7.15749 9.02161 7.06927 9.04016 6.98038C9.00176 6.83381 8.90535 6.69978 8.77603 6.62062Z" fill="#01ACD7"/>
</svg>
