<svg width="11" height="11" viewBox="0 0 11 11" fill="none" xmlns="http://www.w3.org/2000/svg">
<path fill-rule="evenodd" clip-rule="evenodd" d="M5.0295 0.317936C5.56059 0.231407 6.10548 0.241439 6.63908 0.294736C7.1338 0.396942 7.63291 0.511061 8.08688 0.739925C9.00548 1.17822 9.78738 1.88864 10.3084 2.76334C10.7405 3.57158 11.0377 4.47826 10.9932 5.40438C11.0057 7.30553 9.80117 9.11701 8.09503 9.92524C6.98896 10.4513 5.7023 10.5234 4.52035 10.235C3.72089 9.9892 2.94965 9.59167 2.36714 8.98094C1.81222 8.46615 1.39337 7.81028 1.12751 7.10425C0.780762 6.23582 0.749411 5.2702 0.896762 4.35536C1.16638 2.9966 2.00597 1.75069 3.19419 1.02836C3.74723 0.664055 4.38303 0.447731 5.0295 0.317936ZM4.3197 2.7577C3.91966 2.79845 3.48262 2.93891 3.26128 3.30008C3.01675 3.64601 2.99124 4.0787 2.967 4.48976L2.96093 4.5905C2.95595 4.69419 2.94669 4.79774 2.93743 4.90131V4.90131C2.91875 5.11028 2.90007 5.31933 2.91642 5.52979C2.9286 5.6719 2.9372 5.81448 2.94581 5.95709C2.9673 6.31341 2.9888 6.66986 3.06628 7.0196C3.16221 7.4604 3.55912 7.80213 3.99678 7.88239C4.81247 8.02944 5.64341 8.01652 6.46936 8.00368L6.69614 8.00027C7.0341 7.98146 7.37207 7.94698 7.70628 7.89368C8.20664 7.82847 8.6487 7.4209 8.73084 6.91928C8.87443 6.30416 8.90014 5.66961 8.8575 5.04196C8.77724 4.63941 8.49257 4.27636 8.10569 4.12901C7.93139 4.04479 7.73806 4.0453 7.54842 4.04581C7.51498 4.0459 7.48165 4.04599 7.44857 4.04561C7.07553 4.04607 6.7025 4.04586 6.3295 4.04565H6.32947C5.67675 4.04529 5.02412 4.04493 4.37175 4.04812C4.29675 4.04949 4.22675 4.02385 4.15738 3.99843L4.15737 3.99843C4.13163 3.989 4.10597 3.9796 4.08018 3.97162C4.0783 3.83117 4.08331 3.62111 4.27205 3.61735C4.76349 3.60626 5.2554 3.60953 5.74727 3.6128C6.39507 3.6171 7.04282 3.62141 7.68935 3.5929C7.61912 3.26684 7.42035 2.92637 7.07799 2.83608C6.76887 2.75331 6.44909 2.7113 6.13118 2.68183C6.04051 2.6807 5.94969 2.67896 5.8588 2.67723C5.34382 2.66739 4.82655 2.6575 4.3197 2.7577ZM7.82102 5.49655C7.65611 5.45203 7.4586 5.51724 7.40091 5.68717C7.3647 5.88278 7.42272 6.07125 7.48035 6.25847C7.50456 6.33711 7.52869 6.41552 7.54576 6.49415C7.56456 6.50512 7.59277 6.52142 7.62097 6.53772C7.6492 6.55402 7.67743 6.57033 7.69624 6.58131C7.76083 6.54369 7.82666 6.50983 7.89501 6.48036C7.90239 6.31488 7.94227 6.15573 7.98213 5.99663C7.99981 5.92604 8.01749 5.85547 8.03233 5.78436C8.00161 5.6671 7.92448 5.55988 7.82102 5.49655Z" fill="#01ACD7"/>
</svg>
