<svg width="43" height="12" viewBox="0 0 43 12" fill="none" xmlns="http://www.w3.org/2000/svg">
<path fill-rule="evenodd" clip-rule="evenodd" d="M5.79372 1.10054C5.18943 0.863838 4.51851 0.890487 3.88521 0.968865C2.51516 1.18049 1.31283 2.22605 0.906833 3.55143C0.722644 4.07657 0.726563 4.64324 0.775157 5.19111C0.938968 6.59251 1.99316 7.82305 3.33108 8.25178C4.27945 8.53865 5.37362 8.54805 6.2491 8.03468C6.36344 7.97143 6.46728 7.89329 6.57117 7.81512L6.57117 7.81512L6.57118 7.81512L6.57118 7.81511L6.57118 7.81511C6.66812 7.74217 6.76509 7.66921 6.87064 7.6083L6.87225 7.68112C6.88524 8.25881 6.89992 8.91214 6.46151 9.3483C6.16759 9.70727 5.72318 9.89616 5.27408 9.96514C4.30297 10.1431 3.27621 9.81151 2.55435 9.14687C2.39388 9.31033 2.22575 9.46647 2.05764 9.62259C1.78565 9.8752 1.51372 10.1277 1.27443 10.4111C2.02999 11.1259 2.98699 11.6416 4.02472 11.7788C5.03894 11.9066 6.12997 11.8446 7.03367 11.3234C7.80021 10.8978 8.40372 10.1713 8.64043 9.324C8.78734 8.9018 8.78534 8.4508 8.78338 8.00957V8.00955L8.78308 7.93514C8.78229 5.59868 8.78229 3.263 8.78308 0.926541C8.41581 0.92199 8.04854 0.922196 7.68128 0.922401C7.41603 0.92255 7.15078 0.922698 6.88554 0.921055C6.88572 0.985227 6.88608 1.0494 6.88644 1.11357V1.11362C6.8876 1.32219 6.88876 1.53076 6.88397 1.73932C6.55713 1.47205 6.19581 1.23614 5.79372 1.10054ZM3.38672 3.13681C3.70102 2.85778 4.118 2.75119 4.52478 2.69084C5.33443 2.56778 6.24518 2.93851 6.65981 3.66351C6.827 3.95726 6.82005 4.28928 6.81316 4.61817V4.61819C6.81075 4.73333 6.80835 4.84808 6.81343 4.96068C6.88162 5.65197 6.34316 6.26176 5.72632 6.49689C4.98094 6.77749 4.06156 6.7963 3.41102 6.27822C2.43599 5.54695 2.4164 3.87827 3.38672 3.13681ZM22.446 0.922622C21.6356 0.917136 20.7906 1.15932 20.2067 1.74403C20.2015 1.66927 20.1967 1.59461 20.1918 1.52006C20.1835 1.3914 20.1751 1.26306 20.1652 1.13503C19.5272 1.12719 18.8892 1.12484 18.2512 1.13503C18.2521 3.06941 18.252 5.00378 18.2518 6.93816C18.2517 8.38895 18.2516 9.83973 18.252 11.2905C18.7003 11.3194 19.1497 11.3169 19.5989 11.3144H19.5989C19.8079 11.3132 20.0168 11.312 20.2255 11.314C20.2401 10.4178 20.2369 9.52107 20.2336 8.62427C20.2325 8.31802 20.2314 8.01175 20.231 7.70549C21.6387 8.82395 23.8795 8.70089 25.1453 7.41784C26.5232 6.03603 26.6024 3.57338 25.2755 2.13122C24.5771 1.32862 23.5049 0.885001 22.446 0.922622ZM20.3235 3.83203C20.5296 3.21205 21.1598 2.84211 21.7719 2.72062C22.4029 2.59287 23.1083 2.75197 23.5958 3.18149C24.4219 3.93235 24.4282 5.3753 23.6491 6.16143C22.8677 6.91778 21.4851 6.90368 20.7083 6.14733C20.3776 5.85497 20.2044 5.39724 20.2334 4.95989C20.2399 4.84458 20.2368 4.72757 20.2337 4.61045C20.2267 4.34546 20.2197 4.07989 20.3235 3.83203ZM12.528 1.01903C13.6418 0.794865 14.8605 0.929676 15.8301 1.54965C16.5676 1.99484 17.1288 2.7167 17.3796 3.54046C17.7237 4.62287 17.5693 5.86124 16.925 6.80335C16.2847 7.75251 15.1913 8.33408 14.0626 8.44303C13.3674 8.49005 12.6487 8.46654 11.9911 8.21338C10.9016 7.84735 9.98775 6.94835 9.6664 5.83773C9.32154 4.79687 9.48143 3.60551 10.0724 2.68378C10.6195 1.82162 11.5365 1.233 12.528 1.01903ZM12.9943 2.73081C12.7169 2.80997 12.4575 2.94792 12.2302 3.12427C11.4432 3.74424 11.2512 4.97008 11.8116 5.80011C12.452 6.85587 14.1042 7.06435 14.971 6.18024C15.3951 5.7907 15.5965 5.20914 15.5401 4.63932C15.5879 3.37587 14.1865 2.35773 12.9943 2.73081ZM31.1883 0.969649C30.0479 0.819947 28.8127 0.979055 27.8666 1.67584C27.3203 2.11005 26.8532 2.7073 26.7607 3.41741C27.0331 3.46404 27.3032 3.52295 27.5733 3.58187L27.5733 3.58187C27.9252 3.6586 28.2771 3.73534 28.634 3.785C28.7884 3.16503 29.326 2.67203 29.957 2.57014C30.3653 2.4996 30.7902 2.52076 31.1875 2.64146C31.5348 2.75432 31.7989 3.13446 31.6468 3.49657C31.3636 3.75481 30.9783 3.8329 30.6113 3.90728C30.5639 3.91688 30.5169 3.92642 30.4704 3.93627L30.2793 3.9634C29.3476 4.09501 28.3789 4.23184 27.5861 4.77022C26.6055 5.45603 26.6016 7.06984 27.5085 7.81914C28.257 8.46262 29.3112 8.5363 30.2501 8.41168C30.8999 8.29019 31.5543 8.00881 31.969 7.47349C31.9713 7.60556 31.9713 7.73762 31.9713 7.86979C31.9713 8.00195 31.9713 8.13422 31.9737 8.26668C32.1167 8.26649 32.2597 8.26603 32.4028 8.26557L32.403 8.26557C32.8567 8.26412 33.3108 8.26266 33.7654 8.26981C33.7672 7.38433 33.7669 6.4991 33.7667 5.61398C33.7665 4.9502 33.7663 4.28648 33.767 3.62276C33.774 3.0843 33.5773 2.55995 33.281 2.11632C32.7998 1.4407 31.9831 1.09976 31.1883 0.969649ZM28.721 6.33387C28.6175 6.08854 28.8174 5.84635 29.0172 5.72565C29.4203 5.50349 29.874 5.42061 30.3269 5.33788C30.8726 5.2382 31.417 5.13874 31.8702 4.79608C31.8659 4.90369 31.8694 5.01634 31.8728 5.13055V5.13063C31.8846 5.51632 31.8969 5.91985 31.6139 6.20768C31.0668 6.75319 30.2337 6.85351 29.4977 6.80649C29.192 6.78846 28.7899 6.68265 28.721 6.33387ZM34.5543 1.12956C34.3436 1.12994 34.1329 1.13032 33.9222 1.13032C34.4782 2.29209 35.0465 3.44801 35.6149 4.60401C36.1481 5.68865 36.6814 6.77336 37.2046 7.86303C36.9475 8.42847 36.6678 8.98354 36.3882 9.5386C36.0927 10.1253 35.7972 10.712 35.5281 11.3109C35.7545 11.3099 35.9811 11.3117 36.2077 11.3134C36.7115 11.3173 37.2155 11.3212 37.7188 11.2952C39.3702 7.91084 41.0201 4.52646 42.6684 1.14051C41.9277 1.1217 41.1878 1.12484 40.4479 1.13738C39.7378 2.69632 39.0191 4.25214 38.2965 5.80481C38.0834 5.34473 37.868 4.88566 37.6527 4.42662C37.3009 3.67669 36.9492 2.92683 36.6074 2.17276C36.5527 2.04999 36.4923 1.92965 36.432 1.80935C36.3214 1.58865 36.2109 1.36805 36.1348 1.13268C35.608 1.12764 35.0812 1.1286 34.5543 1.12956Z" fill="#010101"/>
</svg>
