<svg width="34" height="10" viewBox="0 0 34 10" fill="none" xmlns="http://www.w3.org/2000/svg">
<path fill-rule="evenodd" clip-rule="evenodd" d="M4.43508 0.880518C3.95164 0.691156 3.41491 0.712475 2.90827 0.775178C1.81223 0.944475 0.850367 1.78093 0.525567 2.84123C0.378216 3.26134 0.381351 3.71468 0.420226 4.15297C0.551275 5.2741 1.39463 6.25853 2.46496 6.60151C3.22366 6.83101 4.09899 6.83853 4.79938 6.42783C4.89085 6.37723 4.97393 6.31472 5.05703 6.25218L5.05704 6.25218L5.05705 6.25217L5.05706 6.25217L5.05707 6.25216C5.13461 6.19381 5.21218 6.13545 5.29662 6.08672L5.2979 6.14498C5.30829 6.60713 5.32004 7.1298 4.96931 7.47872C4.73417 7.7659 4.37865 7.91702 4.01936 7.97219C3.24247 8.11453 2.42107 7.8493 1.84358 7.31758C1.7152 7.44835 1.5807 7.57326 1.44621 7.69816C1.22862 7.90024 1.01108 8.10227 0.819643 8.32897C1.4241 8.90082 2.1897 9.31341 3.01988 9.42313C3.83125 9.52534 4.70407 9.47581 5.42704 9.05883C6.04027 8.71836 6.52308 8.1371 6.71244 7.45929C6.82998 7.12152 6.82837 6.76072 6.8268 6.40773L6.82656 6.34819C6.82593 4.47903 6.82593 2.61049 6.82656 0.741318C6.53275 0.737678 6.23894 0.737842 5.94512 0.738006C5.73292 0.738125 5.52073 0.738244 5.30853 0.736929L5.30925 0.890957C5.31018 1.05782 5.31111 1.22468 5.30727 1.39155C5.0458 1.17773 4.75674 0.988994 4.43508 0.880518ZM2.50948 2.50953C2.76092 2.28631 3.0945 2.20104 3.41992 2.15276C4.06764 2.05431 4.79625 2.3509 5.12795 2.9309C5.2617 3.1659 5.25614 3.43151 5.25063 3.69462V3.69463V3.69464V3.69465V3.69466C5.2487 3.78677 5.24678 3.87856 5.25084 3.96863C5.30539 4.52166 4.87463 5.00949 4.38116 5.1976C3.78485 5.42207 3.04935 5.43712 2.52892 5.02266C1.7489 4.43764 1.73322 3.1027 2.50948 2.50953ZM17.7569 0.738183C17.1086 0.733793 16.4326 0.927545 15.9655 1.39531C15.9614 1.33567 15.9575 1.27612 15.9536 1.21666L15.9536 1.21613L15.9536 1.21594C15.9469 1.11308 15.9402 1.01047 15.9322 0.908107C15.4218 0.901837 14.9114 0.899956 14.401 0.908107C14.4018 2.45561 14.4017 4.00311 14.4016 5.55061C14.4015 6.71124 14.4014 7.87187 14.4017 9.0325C14.7603 9.05561 15.1198 9.0536 15.4792 9.05159H15.4792H15.4792H15.4792H15.4792H15.4793H15.4793H15.4793H15.4794C15.6465 9.05065 15.8136 9.04971 15.9805 9.05131C15.9922 8.3343 15.9896 7.61694 15.987 6.8995L15.987 6.89832L15.987 6.89714L15.987 6.89596L15.987 6.89479C15.9861 6.65136 15.9852 6.40792 15.9849 6.16447C17.1111 7.05924 18.9037 6.9608 19.9164 5.93436C21.0187 4.82891 21.082 2.85879 20.0205 1.70506C19.4618 1.06298 18.604 0.708085 17.7569 0.738183ZM16.0589 3.06571C16.2238 2.56973 16.7279 2.27377 17.2177 2.17658C17.7224 2.07438 18.2867 2.20166 18.6767 2.54527C19.3376 3.14597 19.3426 4.30032 18.7194 4.92923C18.0942 5.53431 16.9882 5.52303 16.3668 4.91795C16.1022 4.68406 15.9636 4.31788 15.9868 3.968C15.992 3.87577 15.9895 3.78219 15.9871 3.68852V3.6885V3.68848V3.68847V3.68845C15.9815 3.47645 15.9759 3.26399 16.0589 3.06571ZM9.8225 0.815308C10.7135 0.635978 11.6885 0.743827 12.4642 1.23981C13.0542 1.59596 13.5031 2.17345 13.7038 2.83245C13.9791 3.69838 13.8555 4.68908 13.3401 5.44277C12.8278 6.2021 11.9531 6.66735 11.0502 6.75451C10.494 6.79213 9.91906 6.77332 9.39298 6.57079C8.52142 6.27797 7.7903 5.55877 7.53322 4.67027C7.25733 3.83758 7.38524 2.8845 7.85802 2.14711C8.29569 1.45738 9.02931 0.986487 9.8225 0.815308ZM10.1956 2.18474C9.97361 2.24806 9.76606 2.35842 9.58423 2.4995C8.95469 2.99548 8.80107 3.97615 9.24939 4.64017C9.76167 5.48478 11.0834 5.65157 11.7769 4.94428C12.1162 4.63265 12.2773 4.16739 12.2322 3.71155C12.2704 2.70078 11.1493 1.88627 10.1956 2.18474ZM24.7508 0.775804C23.8384 0.656042 22.8502 0.783328 22.0934 1.34076C21.6564 1.68813 21.2827 2.16592 21.2087 2.73401C21.4265 2.77132 21.6426 2.81845 21.8588 2.86558C22.1402 2.92696 22.4217 2.98836 22.7073 3.02809C22.8308 2.53211 23.2609 2.13771 23.7657 2.05619C24.0924 1.99976 24.4322 2.01669 24.7501 2.11325C25.0279 2.20354 25.2392 2.50765 25.1176 2.79734C24.891 3.00394 24.5827 3.06641 24.2891 3.12591C24.2512 3.13359 24.2136 3.14122 24.1764 3.1491L24.0235 3.1708C23.2782 3.27609 22.5033 3.38555 21.8689 3.81626C21.0845 4.36491 21.0814 5.65596 21.8069 6.25539C22.4057 6.77018 23.249 6.82912 24.0002 6.72943C24.52 6.63224 25.0436 6.40713 25.3753 5.97888C25.3772 6.08453 25.3772 6.19018 25.3772 6.29592C25.3772 6.40165 25.3772 6.50746 25.379 6.61343C25.4935 6.61328 25.608 6.61291 25.7225 6.61254C26.0855 6.61138 26.4488 6.61022 26.8124 6.61593C26.8139 5.90837 26.8136 5.20102 26.8134 4.49375V4.49131V4.48691V4.48687C26.8133 3.95731 26.8131 3.4278 26.8137 2.89829C26.8193 2.46752 26.6619 2.04804 26.4249 1.69314C26.0399 1.15265 25.3866 0.879891 24.7508 0.775804ZM22.7769 5.06718C22.6941 4.87092 22.854 4.67717 23.0139 4.5806C23.3364 4.40288 23.6993 4.33657 24.0616 4.27039C24.4982 4.19065 24.9337 4.11108 25.2963 3.83695C25.2928 3.92306 25.2956 4.0132 25.2984 4.10459C25.3078 4.41314 25.3176 4.73596 25.0912 4.96623C24.6536 5.40264 23.987 5.4829 23.3983 5.44528C23.1537 5.43085 22.8321 5.34621 22.7769 5.06718ZM27.4436 0.903732C27.275 0.904039 27.1064 0.904346 26.9378 0.904346C27.3826 1.83376 27.8373 2.75849 28.292 3.68329C28.7186 4.551 29.1452 5.41877 29.5638 6.29051C29.3581 6.74286 29.1344 7.18692 28.9107 7.63096C28.6743 8.10033 28.4378 8.56968 28.2226 9.0488C28.4037 9.04802 28.585 9.04942 28.7663 9.05081C29.1693 9.05391 29.5725 9.05702 29.9751 9.03626C31.2963 6.32876 32.6162 3.62125 33.9348 0.912498C33.3423 0.897449 32.7504 0.899957 32.1585 0.90999C31.5904 2.15715 31.0154 3.4018 30.4373 4.64394C30.2668 4.27584 30.0945 3.90856 29.9222 3.54131C29.6408 2.94139 29.3594 2.34153 29.086 1.73829C29.0422 1.64008 28.994 1.54381 28.9457 1.44757C28.8572 1.27101 28.7688 1.09453 28.7079 0.906227C28.2865 0.902197 27.865 0.902964 27.4436 0.903732Z" fill="#010101"/>
</svg>
