<svg width="7" height="10" viewBox="0 0 7 10" fill="none" xmlns="http://www.w3.org/2000/svg">
<path fill-rule="evenodd" clip-rule="evenodd" d="M6.42841 7.0818C6.42841 7.78554 6.45936 8.47248 6.53689 8.95393H4.81663L4.69315 8.09003H4.6461C4.18157 8.69869 3.39147 9.13007 2.41552 9.13007C0.896888 9.13007 0.0452042 7.99479 0.0452042 6.80992C0.0452042 4.84091 1.73326 3.84963 4.52215 3.86545V3.73694C4.52215 3.22466 4.32052 2.37707 2.98836 2.37707C2.24436 2.37707 1.46941 2.61731 0.958467 2.95279L0.586152 1.67366C1.14494 1.32089 2.12184 0.984428 3.31378 0.984428C5.73163 0.984428 6.42841 2.56969 6.42841 4.26519V7.0818ZM4.56857 5.14573C3.22094 5.11344 1.93536 5.41744 1.93536 6.60182C1.93536 7.36917 2.41552 7.72193 3.01994 7.72193C3.77815 7.72193 4.33678 7.20966 4.50668 6.64977C4.55278 6.50575 4.56857 6.34511 4.56857 6.21757V5.14573Z" fill="white"/>
</svg>
