<svg width="7" height="10" viewBox="0 0 7 10" fill="none" xmlns="http://www.w3.org/2000/svg">
<path fill-rule="evenodd" clip-rule="evenodd" d="M6.87119 0.82373V7.80865C6.87119 8.44862 6.89557 9.14118 6.92045 9.56313H5.557L5.49599 8.57753H5.47073C5.1111 9.26917 4.37873 9.70404 3.49969 9.70404C2.0626 9.70404 0.921969 8.43688 0.921969 6.51656C0.909337 4.42964 2.17351 3.18753 3.62348 3.18753C4.45363 3.18753 5.04908 3.54646 5.32129 4.00768H5.34643V0.82373H6.87119ZM5.34643 5.92669C5.34643 5.8 5.33367 5.64565 5.3098 5.51805C5.17325 4.90352 4.68959 4.40393 3.99548 4.40393C3.01641 4.40393 2.47098 5.30055 2.47098 6.46555C2.47098 7.60459 3.01641 8.43688 3.98311 8.43688C4.60256 8.43688 5.14824 8.00175 5.29679 7.32342C5.33367 7.18198 5.34643 7.02855 5.34643 6.86154V5.92669Z" fill="white"/>
</svg>
