<svg width="6" height="7" viewBox="0 0 6 7" fill="none" xmlns="http://www.w3.org/2000/svg">
<path fill-rule="evenodd" clip-rule="evenodd" d="M5.74231 5.0654C5.74231 5.62839 5.76707 6.17795 5.82909 6.56311H4.45288L4.3541 5.87199H4.31646C3.94484 6.35891 3.31275 6.70402 2.53199 6.70402C1.31709 6.70402 0.635742 5.79579 0.635742 4.8479C0.635742 3.27269 1.98618 2.47966 4.2173 2.49232V2.38951C4.2173 1.97969 4.05599 1.30162 2.99027 1.30162C2.39507 1.30162 1.77511 1.4938 1.36635 1.76219L1.0685 0.738883C1.51553 0.456668 2.29705 0.1875 3.25061 0.1875C5.18488 0.1875 5.74231 1.45571 5.74231 2.81211V5.0654ZM4.25444 3.51654C3.17633 3.49071 2.14787 3.73391 2.14787 4.68141C2.14787 5.29529 2.53199 5.57751 3.01553 5.57751C3.6221 5.57751 4.069 5.16769 4.20492 4.71977C4.2418 4.60456 4.25444 4.47605 4.25444 4.37401V3.51654Z" fill="white"/>
</svg>
