<svg width="12" height="9" viewBox="0 0 12 9" fill="none" xmlns="http://www.w3.org/2000/svg">
<path fill-rule="evenodd" clip-rule="evenodd" d="M0.0632208 3.48103C0.0632208 2.58435 0.0474314 1.83184 6.29425e-05 1.16088H1.64343L1.72048 2.31361H1.76659C2.13906 1.70446 2.82022 0.984085 4.0908 0.984085C5.08254 0.984085 5.85717 1.56159 6.18196 2.42549H6.21385C6.47769 1.99346 6.78654 1.67364 7.14259 1.44874C7.56133 1.14506 8.0418 0.984085 8.66154 0.984085C9.91617 0.984085 11.1858 1.86413 11.1858 4.36107V8.95359H9.32691V4.64958C9.32691 3.35349 8.8938 2.58435 7.98022 2.58435C7.32843 2.58435 6.84764 3.06531 6.64759 3.62569C6.60054 3.81716 6.55412 4.0574 6.55412 4.27985V8.95359H4.69459V4.44083C4.69459 3.35349 4.27696 2.58435 3.39369 2.58435C2.68096 2.58435 2.20127 3.16137 2.03043 3.7043C1.95243 3.89757 1.92117 4.121 1.92117 4.3446V8.95359H0.0632208V3.48103Z" fill="white"/>
</svg>
