<svg width="8" height="12" viewBox="0 0 8 12" fill="none" xmlns="http://www.w3.org/2000/svg">
<path fill-rule="evenodd" clip-rule="evenodd" d="M7.83845 0.0297012V8.76085C7.83845 9.56081 7.86892 10.4265 7.90002 10.9539H6.19571L6.11945 9.72195H6.08787C5.63834 10.5865 4.72287 11.1301 3.62408 11.1301C1.82771 11.1301 0.401919 9.54614 0.401919 7.14574C0.38613 4.53708 1.96634 2.98444 3.77881 2.98444C4.8165 2.98444 5.56081 3.43311 5.90108 4.00964H5.9325V0.0297012H7.83845ZM5.9325 6.4084C5.9325 6.25004 5.91655 6.0571 5.88671 5.8976C5.71602 5.12943 5.11145 4.50495 4.24381 4.50495C3.01997 4.50495 2.33818 5.62572 2.33818 7.08197C2.33818 8.50577 3.01997 9.54614 4.22834 9.54614C5.00266 9.54614 5.68476 9.00222 5.87045 8.15431C5.91655 7.97752 5.9325 7.78572 5.9325 7.57696V6.4084Z" fill="white"/>
</svg>
