<svg width="9" height="7" viewBox="0 0 9 7" fill="none" xmlns="http://www.w3.org/2000/svg">
<path fill-rule="evenodd" clip-rule="evenodd" d="M0.0505263 2.18481C0.0505263 1.46746 0.0378947 0.865459 0 0.328689H1.31469L1.37634 1.25088H1.41322C1.7112 0.763559 2.25613 0.187256 3.27259 0.187256C4.06598 0.187256 4.68568 0.649264 4.94552 1.34038H4.97103C5.18211 0.994758 5.42918 0.738899 5.71402 0.558976C6.04901 0.316033 6.43339 0.187256 6.92918 0.187256C7.93288 0.187256 8.94859 0.891293 8.94859 2.88885V6.56286H7.46147V3.11965C7.46147 2.08278 7.11499 1.46746 6.38413 1.46746C5.86269 1.46746 5.47806 1.85223 5.31802 2.30054C5.28038 2.45372 5.24324 2.6459 5.24324 2.82387V6.56286H3.75562V2.95265C3.75562 2.08278 3.42152 1.46746 2.71491 1.46746C2.14472 1.46746 1.76097 1.92908 1.62429 2.36343C1.56189 2.51804 1.53688 2.69679 1.53688 2.87567V6.56286H0.0505263V2.18481Z" fill="white"/>
</svg>
