<svg width="37" height="8" viewBox="0 0 37 8" fill="none" xmlns="http://www.w3.org/2000/svg">
<path fill-rule="evenodd" clip-rule="evenodd" d="M21.1129 0.739623C19.9595 1.4295 17.239 3.04118 16.2234 3.64136C15.6045 3.96706 14.1709 4.10927 13.3602 2.98002C13.3456 2.95964 12.2817 1.58656 12.2383 1.53486C12.2078 1.49833 11.5201 0.444589 9.98753 0.411645C9.76111 0.4061 8.63532 0.399902 7.53684 1.04477C6.07679 1.90639 2.68111 3.91161 2.68111 3.91161C2.68016 3.91161 2.68016 3.9134 2.67842 3.9134C1.28263 4.73832 0.195053 5.38058 0.195053 5.38058L1.48 7.01069C2.08111 7.78162 3.43663 8.37805 4.61216 7.68099C4.61216 7.68099 8.95568 5.08293 8.97163 5.07543C10.8501 4.01126 12.2996 4.01125 13.2616 4.40724C14.1252 4.78415 14.8764 5.72323 14.8764 5.72323C14.8764 5.72323 15.8582 6.98002 16.0314 7.19987C16.5901 7.91014 17.5147 7.63109 17.5147 7.63109C17.5147 7.63109 17.8573 7.59097 18.3738 7.27424C18.3738 7.27424 22.5811 4.75447 22.5837 4.75365C23.9197 3.94406 25.1449 3.79287 25.7712 3.8524C27.7325 4.03653 28.3418 5.45185 29.1923 6.43921C29.6931 7.01998 30.145 7.34975 30.8361 7.33312C31.2902 7.32317 31.8032 7.03874 31.8788 6.98736L36.9169 3.98418C36.9169 3.98418 36.4 3.17997 35.3413 1.92873C34.3938 0.812363 33.3874 1.31746 32.5849 1.72796C32.2478 1.90019 31.0264 2.73946 29.8163 3.32496C28.954 3.74199 27.7155 3.61657 27.0367 2.75023C26.9961 2.69755 25.8979 1.32431 25.7825 1.15535C25.3393 0.581913 24.4745 0.0683355 23.3663 0.0683355C22.6924 0.0683355 21.9277 0.258175 21.1129 0.739623Z" fill="url(#paint0_linear_353_1392)"/>
<defs>
<linearGradient id="paint0_linear_353_1392" x1="0.195053" y1="7.98969" x2="36.9169" y2="7.98969" gradientUnits="userSpaceOnUse">
<stop stop-color="#FFCA06"/>
<stop offset="0.330844" stop-color="#FBAA18"/>
<stop offset="0.694742" stop-color="#FFC907"/>
<stop offset="1" stop-color="#FAA619"/>
</linearGradient>
</defs>
</svg>
