<svg width="30" height="7" viewBox="0 0 30 7" fill="none" xmlns="http://www.w3.org/2000/svg">
<path fill-rule="evenodd" clip-rule="evenodd" d="M17.29 0.791669C16.3672 1.34357 14.1908 2.63292 13.3784 3.11306C12.8832 3.37362 11.7364 3.48739 11.0877 2.58399C11.0761 2.56768 10.225 1.46922 10.1903 1.42786C10.1659 1.39863 9.61566 0.555642 8.38964 0.529286C8.20851 0.52485 7.30787 0.519892 6.4291 1.03579C5.26105 1.72508 2.54451 3.32925 2.54451 3.32925C2.54375 3.32925 2.54375 3.33069 2.54236 3.33069C1.42573 3.99063 0.555664 4.50443 0.555664 4.50443L1.58362 5.80852C2.06451 6.42527 3.14893 6.90241 4.08935 6.34477C4.08935 6.34477 7.56417 4.26632 7.57693 4.26032C9.07971 3.40897 10.2393 3.40897 11.0089 3.72576C11.6997 4.02729 12.3008 4.77856 12.3008 4.77856C12.3008 4.77856 13.0862 5.78399 13.2248 5.95987C13.6717 6.52808 14.4114 6.30484 14.4114 6.30484C14.4114 6.30484 14.6855 6.27274 15.0987 6.01936C15.0987 6.01936 18.4645 4.00354 18.4666 4.00289C19.5354 3.35522 20.5156 3.23427 21.0165 3.28189C22.5856 3.4292 23.0731 4.56145 23.7534 5.35134C24.1541 5.81596 24.5156 6.07977 25.0685 6.06647C25.4318 6.05851 25.8422 5.83096 25.9027 5.78986L29.9332 3.38732C29.9332 3.38732 29.5196 2.74395 28.6727 1.74295C27.9147 0.84986 27.1095 1.25394 26.4676 1.58234C26.1979 1.72012 25.2207 2.39154 24.2526 2.85994C23.5628 3.19356 22.572 3.09323 22.029 2.40015C21.9965 2.35801 21.118 1.25942 21.0256 1.12425C20.6711 0.665501 19.9792 0.254639 19.0926 0.254639C18.5535 0.254639 17.9418 0.40651 17.29 0.791669Z" fill="url(#paint0_linear_4582_2791)"/>
<defs>
<linearGradient id="paint0_linear_4582_2791" x1="0.555664" y1="6.59172" x2="29.9332" y2="6.59172" gradientUnits="userSpaceOnUse">
<stop stop-color="#FFCA06"/>
<stop offset="0.330844" stop-color="#FBAA18"/>
<stop offset="0.694742" stop-color="#FFC907"/>
<stop offset="1" stop-color="#FAA619"/>
</linearGradient>
</defs>
</svg>
