<svg width="486" height="56" viewBox="0 0 486 56" fill="none" xmlns="http://www.w3.org/2000/svg">
<rect x="0.5" y="0.5" width="150.333" height="55" rx="9.5" stroke="#235D3A"/>
<path d="M87.6665 28.0733C87.6665 21.4055 82.2939 16 75.6665 16C69.0391 16 63.6665 21.4054 63.6665 28.0733C63.6665 34.0994 68.0548 39.0943 73.7915 40V31.5633H70.7446V28.0733H73.7915V25.4134C73.7915 22.3875 75.5831 20.7161 78.324 20.7161C79.637 20.7161 81.0103 20.952 81.0103 20.952V23.9231H79.4971C78.0063 23.9231 77.5415 24.8538 77.5415 25.8086V28.0733H80.8696L80.3376 31.5633H77.5415V40C83.2783 39.0943 87.6665 34.0995 87.6665 28.0733Z" fill="#1877F2"/>
<rect x="167.833" y="0.5" width="150.333" height="55" rx="9.5" stroke="#235D3A"/>
<path d="M252.806 26.0415H252V26H243V30H248.652C247.827 32.3285 245.611 34 243 34C239.687 34 237 31.3135 237 28C237 24.6865 239.687 22 243 22C244.53 22 245.921 22.577 246.981 23.5195L249.809 20.691C248.023 19.0265 245.634 18 243 18C237.477 18 233 22.4775 233 28C233 33.5225 237.477 38 243 38C248.523 38 253 33.5225 253 28C253 27.3295 252.931 26.675 252.806 26.0415Z" fill="#FFC107"/>
<path d="M234.153 23.3455L237.438 25.755C238.327 23.554 240.48 22 243 22C244.529 22 245.921 22.577 246.98 23.5195L249.809 20.691C248.023 19.0265 245.634 18 243 18C239.159 18 235.828 20.1685 234.153 23.3455Z" fill="#FF3D00"/>
<path d="M243 38.0003C245.583 38.0003 247.93 37.0118 249.705 35.4043L246.61 32.7853C245.572 33.5745 244.304 34.0014 243 34.0003C240.399 34.0003 238.191 32.3418 237.359 30.0273L234.098 32.5398C235.753 35.7783 239.114 38.0003 243 38.0003Z" fill="#4CAF50"/>
<path d="M252.806 26.0415H252V26H243V30H248.652C248.257 31.1082 247.547 32.0766 246.608 32.7855L246.609 32.7845L249.705 35.4035C249.486 35.6025 253 33 253 28C253 27.3295 252.931 26.675 252.806 26.0415Z" fill="#1976D2"/>
<rect x="335.167" y="0.5" width="150.333" height="55" rx="9.5" stroke="#235D3A"/>
<path d="M415.85 28.5555C415.841 26.957 416.565 25.7523 418.028 24.8641C417.21 23.6922 415.972 23.0477 414.341 22.9234C412.796 22.8016 411.106 23.8234 410.488 23.8234C409.834 23.8234 408.338 22.9656 407.162 22.9656C404.734 23.0031 402.153 24.9016 402.153 28.7641C402.153 29.9055 402.362 31.0844 402.779 32.2984C403.337 33.8969 405.348 37.8133 407.446 37.75C408.542 37.7242 409.318 36.9719 410.746 36.9719C412.131 36.9719 412.848 37.75 414.071 37.75C416.188 37.7195 418.006 34.1594 418.536 32.5563C415.698 31.218 415.85 28.6375 415.85 28.5555ZM413.387 21.407C414.575 19.9961 414.467 18.7117 414.432 18.25C413.382 18.3109 412.168 18.9648 411.477 19.7688C410.715 20.6313 410.267 21.6977 410.363 22.9C411.498 22.9867 412.534 22.4031 413.387 21.407Z" fill="#313131"/>
</svg>
