<svg width="24" height="24" viewBox="0 0 24 24" fill="none" xmlns="http://www.w3.org/2000/svg">
<path d="M12.7525 2C13.0099 2 13.2079 2.21 13.2079 2.46V5.68C13.2079 7.51 14.703 9.01 16.5149 9.02C17.2673 9.02 17.8614 9.03 18.3168 9.03L18.4855 9.02926C18.7899 9.02694 19.1997 9.02 19.5545 9.02C19.802 9.02 20 9.22 20 9.47V17.51C20 19.99 18.0099 22 15.5545 22H7.67327C5.09901 22 3 19.89 3 17.29V6.51C3 4.03 5 2 7.46535 2H12.7525ZM13.8119 14.9H8.42574C8.0198 14.9 7.68317 15.23 7.68317 15.64C7.68317 16.05 8.0198 16.39 8.42574 16.39H13.8119C14.2178 16.39 14.5545 16.05 14.5545 15.64C14.5545 15.23 14.2178 14.9 13.8119 14.9ZM11.7723 9.9H8.42574C8.0198 9.9 7.68317 10.24 7.68317 10.65C7.68317 11.06 8.0198 11.39 8.42574 11.39H11.7723C12.1782 11.39 12.5149 11.06 12.5149 10.65C12.5149 10.24 12.1782 9.9 11.7723 9.9ZM14.6507 2.906C14.6507 2.475 15.1685 2.261 15.4646 2.572C16.5349 3.696 18.4051 5.661 19.4507 6.759C19.7398 7.062 19.5279 7.565 19.1111 7.566C18.2972 7.569 17.3378 7.566 16.6477 7.559C15.5527 7.559 14.6507 6.648 14.6507 5.542V2.906Z" fill="black"/>
</svg>
