<svg width="56" height="17" viewBox="0 0 56 17" fill="none" xmlns="http://www.w3.org/2000/svg">
<path fill-rule="evenodd" clip-rule="evenodd" d="M8.1095 0H7.87617C5.93717 0.0408333 4.02733 0.816667 2.61917 2.15133C0.968333 3.67967 0.021 5.90683 0 8.1515V8.36033C0.0396667 10.5583 0.960167 12.7342 2.56317 14.2462C3.983 15.6182 5.929 16.4173 7.90417 16.45H8.13283C10.8022 16.4197 13.3712 14.9252 14.7595 12.6537C15.9472 10.7707 16.3123 8.40233 15.785 6.24283C15.3428 4.37967 14.2275 2.68217 12.6828 1.54817C11.3703 0.568167 9.74633 0.0303333 8.1095 0ZM4.48467 6.68383C5.23833 6.90433 6.04217 6.77017 6.776 6.53333C7.18039 6.40002 7.57848 6.24763 7.97657 6.09523L7.97658 6.09523L7.97659 6.09522L7.9766 6.09522L7.97661 6.09522C8.6202 5.84884 9.26382 5.60245 9.93417 5.43667C10.8313 5.22667 11.8393 5.39583 12.558 5.99083C12.7002 6.1274 12.6999 6.32472 12.6996 6.51183C12.6995 6.55809 12.6994 6.60373 12.7015 6.64767C12.6935 7.24995 12.6963 7.85243 12.6992 8.45486V8.4549V8.45493V8.45496V8.45499C12.7034 9.34272 12.7076 10.2304 12.677 11.1172C12.5687 11.0711 12.461 11.0222 12.3532 10.9732L12.3531 10.9732L12.3531 10.9732L12.3531 10.9732L12.3531 10.9732C11.909 10.7716 11.4625 10.5689 10.9632 10.5595C9.92174 10.5023 8.95905 10.8479 7.99453 11.1942C7.2097 11.476 6.42366 11.7582 5.593 11.8242C4.83933 11.8767 4.05183 11.6982 3.4405 11.2443C3.31526 11.071 3.32151 10.854 3.32762 10.6416C3.33011 10.5552 3.33258 10.4696 3.32617 10.388C3.33778 9.84895 3.33264 9.30887 3.32749 8.76875C3.3192 7.89791 3.31091 7.02696 3.37283 6.16C3.51035 6.22126 3.64268 6.29417 3.77496 6.36704C4.00291 6.49263 4.23071 6.61813 4.48467 6.68383ZM20.301 4.09703C19.8884 4.09964 19.4758 4.10224 19.0633 4.09733C19.0627 5.48217 19.0627 6.86729 19.0627 8.25256C19.0627 9.63783 19.0627 11.0233 19.0622 12.4087C19.5218 12.4093 19.9812 12.4093 20.4406 12.4093C20.9 12.4093 21.3593 12.4093 21.819 12.4098C22.4875 12.411 23.163 12.2827 23.7603 11.9735C25.3493 11.1942 26.2698 9.3205 25.9653 7.58333C25.7133 5.775 24.1337 4.2385 22.2985 4.116C21.6329 4.08863 20.9669 4.09283 20.301 4.09703H20.301ZM20.7998 9.94065C20.8032 8.58866 20.8067 7.23666 20.7947 5.88467C20.9729 5.89016 21.1522 5.88704 21.3316 5.88391C21.7241 5.87708 22.1172 5.87023 22.5015 5.9535C23.4593 6.17283 24.1978 7.06533 24.2655 8.04067C24.367 9.01133 23.8035 10.0135 22.9075 10.4102C22.4218 10.6397 21.888 10.6285 21.3598 10.6175H21.3597H21.3597H21.3597H21.3597C21.171 10.6135 20.983 10.6096 20.7982 10.6167L20.7998 9.94065ZM29.0523 7.4585C29.1083 5.656 30.7312 4.03667 32.5558 4.0985C34.3443 4.07983 35.9147 5.66417 35.9858 7.43167C36.0044 8.44711 36.0015 9.46298 35.9987 10.4788V10.4802V10.4802V10.4802C35.9969 11.1224 35.9951 11.7644 35.9987 12.4063L35.997 12.4063H35.9968H35.9966H35.9964C35.4173 12.4075 34.8394 12.4087 34.2615 12.4063C34.2586 12.1088 34.2589 11.8113 34.2592 11.5139V11.5128V11.5128V11.5128C34.2595 11.2158 34.2597 10.919 34.2568 10.6225C33.5746 10.6259 32.8929 10.6253 32.2112 10.6247H32.2102H32.2101H32.21C31.7334 10.6243 31.2568 10.6239 30.7802 10.6248C30.7784 10.8466 30.7793 11.0685 30.7801 11.2905V11.2906V11.2906V11.2906C30.7816 11.6653 30.783 12.0401 30.772 12.4145C30.387 12.4052 30.0026 12.4062 29.6183 12.4072H29.6183H29.6182H29.6182H29.6181H29.6181H29.618C29.4259 12.4078 29.2339 12.4083 29.0418 12.4075C29.044 11.8076 29.0424 11.2076 29.0408 10.6076V10.6075V10.6075V10.6075C29.038 9.55749 29.0353 8.50752 29.0523 7.4585ZM31.2247 6.48083C30.7512 6.99244 30.765 7.68278 30.7782 8.3443C30.7816 8.51248 30.7849 8.67879 30.7802 8.83983C31.2429 8.8403 31.7058 8.84002 32.1688 8.83974H32.1688H32.1689H32.1707C32.8661 8.83932 33.5617 8.8389 34.2568 8.841C34.2525 8.68057 34.2562 8.51505 34.26 8.34775C34.2745 7.70112 34.2896 7.0277 33.8438 6.517C33.222 5.70033 31.8687 5.68167 31.2247 6.48083ZM39.0378 7.47717C39.0892 5.8905 40.3293 4.41817 41.9032 4.151C43.0745 3.92583 44.3298 4.38667 45.0928 5.299C45.6832 5.94883 45.9842 6.8285 45.9842 7.70117C45.9865 8.74719 45.9857 9.7927 45.9849 10.8384V10.8385C45.9846 11.3614 45.9842 11.8844 45.9842 12.4075C45.7874 12.4087 45.5905 12.408 45.3935 12.4073H45.3935H45.3935C45.0136 12.4059 44.6335 12.4045 44.254 12.4168C44.2415 11.5281 44.2435 10.6391 44.2455 9.75005V9.74937C44.247 9.06538 44.2486 8.38141 44.2435 7.69767C44.2528 7.063 43.9133 6.43067 43.358 6.11567C42.7817 5.77033 42.0012 5.82167 41.4727 6.237C41.0153 6.57883 40.7598 7.14817 40.768 7.71517C40.7653 8.60793 40.7657 9.50032 40.7661 10.3928V10.3961C40.7664 11.0665 40.7667 11.7369 40.7657 12.4075C40.554 12.4067 40.3423 12.407 40.1306 12.4074C39.7601 12.4081 39.3896 12.4088 39.0192 12.4028C39.0315 11.6114 39.0293 10.8197 39.027 10.028C39.0246 9.1776 39.0221 8.32722 39.0378 7.47717ZM49.5798 5.7085C50.2507 4.66317 51.4897 3.98883 52.7415 4.10783C54.1567 4.19533 55.412 5.27333 55.804 6.62083C55.9487 7.07578 55.9556 7.55102 55.9624 8.02585C55.9664 8.29744 55.9703 8.56889 56 8.83633V12.3982C55.5555 12.4104 55.111 12.4089 54.6665 12.4074C54.5183 12.4068 54.3702 12.4063 54.222 12.4063C54.2213 12.2147 54.2216 12.023 54.2219 11.8312C54.2226 11.4263 54.2233 11.0212 54.2138 10.6167C53.5102 10.6273 52.8061 10.6259 52.1018 10.6244H52.1016H52.1012C51.6485 10.6235 51.1958 10.6226 50.743 10.6248C50.7424 10.9218 50.7424 11.2187 50.7424 11.5157C50.7424 11.8128 50.7424 12.11 50.7418 12.4075H49.0035C49.0029 11.6416 49.0029 10.876 49.0029 10.1105C49.0029 9.345 49.0029 8.57967 49.0023 7.81433C48.9942 7.077 49.1703 6.328 49.5798 5.7085ZM51.1782 6.4925C50.714 7.0022 50.7278 7.68701 50.741 8.34349C50.7444 8.51195 50.7478 8.67854 50.743 8.83983C51.5162 8.84061 52.2894 8.84035 53.0622 8.84009L54.2208 8.83983C54.2157 8.67535 54.2193 8.50554 54.223 8.33395V8.33372C54.2367 7.68993 54.251 7.021 53.8043 6.5135C53.1767 5.69567 51.8175 5.68517 51.1782 6.4925Z" fill="white"/>
</svg>
