<svg width="46" height="14" viewBox="0 0 46 14" fill="none" xmlns="http://www.w3.org/2000/svg">
<path fill-rule="evenodd" clip-rule="evenodd" d="M7.08721 0.599976H6.90054C5.34934 0.632642 3.82148 1.25331 2.69494 2.32104C1.37428 3.54371 0.616409 5.32544 0.599609 7.12117V7.28824C0.631343 9.04664 1.36774 10.7873 2.65014 11.9969C3.78601 13.0945 5.34281 13.7338 6.92294 13.76H7.10588C9.24134 13.7357 11.2965 12.5401 12.4072 10.7229C13.3573 9.21651 13.6495 7.32184 13.2276 5.59424C12.8739 4.10371 11.9816 2.74571 10.7459 1.83851C9.69588 1.05451 8.39668 0.624242 7.08721 0.599976ZM4.18734 5.94704C4.79028 6.12344 5.43334 6.01611 6.02041 5.82664C6.34391 5.72 6.66237 5.59808 6.98084 5.47617L6.98085 5.47617L6.98086 5.47616L6.98086 5.47616L6.98087 5.47616C7.49575 5.27905 8.01066 5.08194 8.54694 4.94931C9.26468 4.78131 10.0711 4.91664 10.646 5.39264C10.7598 5.5019 10.7595 5.65975 10.7593 5.80944C10.7592 5.84645 10.7591 5.88296 10.7608 5.91811C10.7544 6.3999 10.7567 6.88184 10.759 7.36374V7.36388V7.3639V7.36393V7.36395V7.36398C10.7623 8.07416 10.7657 8.78426 10.7412 9.49371C10.6546 9.45687 10.5684 9.41775 10.4821 9.37858L10.4821 9.37856L10.4821 9.37855C10.1268 9.21726 9.76963 9.05508 9.37014 9.04757C8.537 9.00177 7.76685 9.27829 6.99523 9.55534C6.36737 9.78077 5.73854 10.0065 5.07401 10.0593C4.47108 10.1013 3.84108 9.95851 3.35201 9.59544C3.25182 9.45677 3.25682 9.28319 3.26171 9.11327C3.2637 9.04417 3.26567 8.97567 3.26054 8.91037C3.26983 8.47913 3.26572 8.04707 3.2616 7.61498C3.25497 6.9183 3.24834 6.22154 3.29788 5.52797C3.40788 5.57698 3.51374 5.6353 3.61955 5.6936L3.61956 5.6936L3.61956 5.6936L3.61957 5.6936L3.61957 5.69361C3.80193 5.79408 3.98417 5.89448 4.18734 5.94704ZM16.8404 3.8776C16.5103 3.87969 16.1802 3.88177 15.8503 3.87784C15.8498 4.98571 15.8498 6.09381 15.8498 7.20202C15.8498 8.31024 15.8498 9.41858 15.8493 10.5269C16.2171 10.5274 16.5846 10.5274 16.9521 10.5274C17.3196 10.5274 17.6871 10.5274 18.0548 10.5278C18.5896 10.5288 19.13 10.4261 19.6079 10.1788C20.8791 9.55531 21.6155 8.05637 21.3719 6.66664C21.1703 5.21997 19.9065 3.99077 18.4384 3.89277C17.906 3.87088 17.3732 3.87424 16.8404 3.8776ZM17.2395 8.55251C17.2422 7.47091 17.2449 6.38931 17.2353 5.30771C17.3779 5.3121 17.5213 5.3096 17.6649 5.3071H17.6649C17.9789 5.30164 18.2934 5.29616 18.6008 5.36277C19.3671 5.53824 19.9579 6.25224 20.012 7.03251C20.0932 7.80904 19.6424 8.61077 18.9256 8.92811C18.5371 9.11172 18.11 9.10279 17.6874 9.09396H17.6874H17.6874H17.6874H17.6874C17.5364 9.0908 17.386 9.08766 17.2381 9.09331L17.2395 8.55251ZM23.8415 6.56677C23.8863 5.12477 25.1845 3.82931 26.6443 3.87878C28.0751 3.86384 29.3313 5.13131 29.3883 6.54531C29.4031 7.35758 29.4008 8.1702 29.3986 8.98275V8.98299V8.98302V8.98305V8.98308C29.3971 9.49714 29.3956 10.0112 29.3985 10.525L29.3974 10.525C28.9339 10.526 28.4714 10.5269 28.0088 10.525C28.0065 10.2872 28.0067 10.0494 28.0069 9.81162V9.81113V9.81109V9.81106V9.81103C28.0072 9.57319 28.0074 9.33547 28.0051 9.09797C27.4593 9.10072 26.9139 9.10023 26.3686 9.09975H26.3686H26.3685H26.3684C25.9868 9.09941 25.6053 9.09907 25.2237 9.09984C25.2224 9.2771 25.223 9.45449 25.2237 9.63191V9.63194V9.63197V9.63249C25.2249 9.93225 25.226 10.2321 25.2172 10.5316C24.9092 10.5241 24.6016 10.5249 24.2941 10.5258C24.1404 10.5262 23.9867 10.5266 23.8331 10.526C23.8348 10.0461 23.8335 9.56604 23.8322 9.08602C23.83 8.24599 23.8278 7.40601 23.8415 6.56677ZM25.5793 5.78464C25.2006 6.19392 25.2116 6.7462 25.2222 7.27542C25.2249 7.40996 25.2275 7.54301 25.2237 7.67184C25.5944 7.67222 25.9652 7.67199 26.3361 7.67177H26.3361H26.3361H26.3362H26.3369C26.893 7.67143 27.4492 7.6711 28.0051 7.67278C28.0016 7.5445 28.0046 7.41216 28.0076 7.27839V7.27828V7.27817C28.0192 6.76087 28.0313 6.22213 27.6747 5.81357C27.1772 5.16024 26.0945 5.14531 25.5793 5.78464ZM31.8299 6.58171C31.8709 5.31238 32.8631 4.13451 34.1221 3.92077C35.0592 3.74064 36.0635 4.10931 36.6739 4.83917C37.1461 5.35904 37.3869 6.06277 37.3869 6.76091C37.3888 7.59773 37.3882 8.43413 37.3876 9.27068V9.27078L37.3876 9.2858C37.3872 9.69913 37.3869 10.1125 37.3869 10.526C37.2295 10.5269 37.072 10.5264 36.9144 10.5258H36.9144H36.9143C36.6104 10.5247 36.3064 10.5236 36.0028 10.5334C35.9928 9.82228 35.9944 9.11081 35.996 8.39939C35.9972 7.85222 35.9985 7.30508 35.9944 6.75811C36.0019 6.25037 35.7303 5.74451 35.286 5.49251C34.8249 5.21624 34.2005 5.25731 33.7777 5.58957C33.4119 5.86304 33.2075 6.31851 33.214 6.77211C33.2119 7.48704 33.2122 8.20167 33.2125 8.91634C33.2127 9.45281 33.2129 9.98931 33.2121 10.526C33.0428 10.5253 32.8734 10.5256 32.7041 10.5259C32.4077 10.5265 32.1113 10.527 31.8149 10.5222C31.8248 9.88909 31.823 9.25572 31.8212 8.62234V8.62208C31.8193 7.94188 31.8173 7.26167 31.8299 6.58171ZM40.2635 5.16678C40.8001 4.33051 41.7913 3.79104 42.7928 3.88624C43.9249 3.95624 44.9292 4.81864 45.2428 5.89664C45.3586 6.26058 45.3641 6.64076 45.3696 7.0206V7.02065C45.3727 7.23793 45.3758 7.45509 45.3996 7.66904V10.5185C45.044 10.5283 44.6884 10.5271 44.3328 10.5259L44.332 10.5259C44.2137 10.5254 44.0955 10.525 43.9772 10.525C43.9766 10.3718 43.9769 10.2184 43.9771 10.065C43.9777 9.74103 43.9783 9.41695 43.9707 9.09331C43.4077 9.10183 42.8444 9.10067 42.2809 9.09951H42.2809C41.9186 9.09876 41.5563 9.09801 41.194 9.09984C41.1935 9.33738 41.1935 9.57492 41.1935 9.81258C41.1935 10.0502 41.1935 10.288 41.1931 10.526H39.8024C39.8019 9.91324 39.8019 9.30074 39.8019 8.68836C39.8019 8.07597 39.8019 7.46371 39.8015 6.85144C39.7949 6.26158 39.9359 5.66238 40.2635 5.16678ZM41.5421 5.79397C41.1708 6.20174 41.1818 6.74958 41.1924 7.27477C41.1951 7.40953 41.1978 7.54281 41.194 7.67184C41.8119 7.67246 42.4298 7.67226 43.0475 7.67205H43.0494L43.9763 7.67184C43.9722 7.54019 43.9751 7.40429 43.978 7.26695C43.989 6.75192 44.0005 6.21678 43.6431 5.81077C43.1409 5.15651 42.0536 5.14811 41.5421 5.79397Z" fill="white"/>
</svg>
