<svg width="42" height="43" viewBox="0 0 42 43" fill="none" xmlns="http://www.w3.org/2000/svg">
<g clip-path="url(#clip0_4125_11980)">
<path d="M33.4412 3.62073H14.1738V11.6108H37.5563V7.73415C37.5563 5.46579 35.7102 3.62073 33.4412 3.62073Z" fill="#397D54"/>
<path d="M22.5352 12.8403H0V5.42636C0 2.70972 2.21068 0.5 4.92828 0.5H12.1336C12.8497 0.5 13.5396 0.650925 14.1664 0.934509C15.0418 1.32896 15.7939 1.97913 16.3213 2.8286L22.5352 12.8403Z" fill="#235D3A"/>
<path d="M42 14.5001V38.3815C42 40.6527 40.1511 42.5 37.8789 42.5H4.12111C1.84891 42.5 0 40.6527 0 38.3815V10.3806H37.8789C40.1511 10.3806 42 12.2286 42 14.5001Z" fill="#235D3A"/>
<path d="M42 14.5001V38.3815C42 40.6527 40.1511 42.5 37.8789 42.5H21V10.3806H37.8789C40.1511 10.3806 42 12.2286 42 14.5001Z" fill="#235D3A"/>
<path d="M32.0471 26.4398C32.0471 32.5322 27.0909 37.4887 20.9991 37.4887C14.9073 37.4887 9.95117 32.5322 9.95117 26.4398C9.95117 20.3483 14.9073 15.3918 20.9991 15.3918C27.0909 15.3918 32.0471 20.3483 32.0471 26.4398Z" fill="#397D54"/>
<path d="M32.0479 26.4398C32.0479 32.5322 27.0918 37.4887 21 37.4887V15.3918C27.0918 15.3918 32.0479 20.3483 32.0479 26.4398Z" fill="#397D54"/>
<path d="M24.5612 26.5753C24.3308 26.7704 24.0485 26.8656 23.7688 26.8656C23.4185 26.8656 23.0705 26.7173 22.827 26.4282L22.2307 25.7213V30.3494C22.2307 31.0287 21.6795 31.5799 21.0002 31.5799C20.3209 31.5799 19.7698 31.0287 19.7698 30.3494V25.7213L19.1734 26.4282C18.7344 26.9476 17.9587 27.014 17.4392 26.5753C16.9201 26.1373 16.8535 25.3612 17.2915 24.8418L19.7271 21.9543C20.0447 21.5788 20.508 21.3628 21.0002 21.3628C21.4924 21.3628 21.9558 21.5788 22.2733 21.9543L24.7089 24.8418C25.147 25.3612 25.0803 26.1373 24.5612 26.5753Z" fill="white"/>
<path d="M24.561 26.5753C24.3306 26.7704 24.0483 26.8656 23.7686 26.8656C23.4183 26.8656 23.0703 26.7173 22.8268 26.4282L22.2305 25.7213V30.3494C22.2305 31.0287 21.6793 31.5799 21 31.5799V21.3628C21.4922 21.3628 21.9555 21.5788 22.2731 21.9543L24.7087 24.8418C25.1467 25.3612 25.0801 26.1373 24.561 26.5753Z" fill="white"/>
</g>
<defs>
<clipPath id="clip0_4125_11980">
<rect width="42" height="42" fill="white" transform="translate(0 0.5)"/>
</clipPath>
</defs>
</svg>
